<svg xmlns="http://www.w3.org/2000/svg" viewBox="0 0 2000 700" width="2000" height="700">
  <defs>
    <!-- Wall & Floor Gradients -->
    <linearGradient id="wallF2" x1="0%" y1="0%" x2="0%" y2="100%">
      <stop offset="0%" stop-color="#FFF5F8"/>
      <stop offset="60%" stop-color="#FDE8F0"/>
      <stop offset="100%" stop-color="#F9D7E4"/>
    </linearGradient>
    <linearGradient id="wallF2Stripe" x1="0%" y1="0%" x2="0%" y2="100%">
      <stop offset="0%" stop-color="#FCE1EB"/>
      <stop offset="100%" stop-color="#F7CADB"/>
    </linearGradient>
    <linearGradient id="floorF2" x1="0%" y1="0%" x2="100%" y2="100%">
      <stop offset="0%" stop-color="#F2DEC7"/>
      <stop offset="50%" stop-color="#E2C4A2"/>
      <stop offset="100%" stop-color="#D3B08B"/>
    </linearGradient>
    <linearGradient id="deckWood" x1="0%" y1="0%" x2="100%" y2="100%">
      <stop offset="0%" stop-color="#BD9068"/>
      <stop offset="50%" stop-color="#A97C54"/>
      <stop offset="100%" stop-color="#936841"/>
    </linearGradient>
    <linearGradient id="nightSky" x1="0%" y1="0%" x2="0%" y2="100%">
      <stop offset="0%" stop-color="#1B1633"/>
      <stop offset="40%" stop-color="#2D2452"/>
      <stop offset="80%" stop-color="#4B3A75"/>
      <stop offset="100%" stop-color="#674E8B"/>
    </linearGradient>
    <linearGradient id="moonGlow" x1="0%" y1="0%" x2="100%" y2="100%">
      <stop offset="0%" stop-color="#FFF8D6"/>
      <stop offset="100%" stop-color="#FFE382"/>
    </linearGradient>
    <linearGradient id="windowSunset" x1="0%" y1="0%" x2="0%" y2="100%">
      <stop offset="0%" stop-color="#3D3063"/>
      <stop offset="50%" stop-color="#6B508A"/>
      <stop offset="100%" stop-color="#C585A8"/>
    </linearGradient>

    <!-- Floor Patterns -->
    <pattern id="parquetF2" width="70" height="35" patternUnits="userSpaceOnUse" patternTransform="rotate(25)">
      <line x1="0" y1="0" x2="70" y2="0" stroke="#C29A72" stroke-width="1.4" opacity="0.45"/>
      <line x1="25" y1="0" x2="25" y2="35" stroke="#C29A72" stroke-width="1" opacity="0.3"/>
      <line x1="60" y1="0" x2="60" y2="35" stroke="#C29A72" stroke-width="1" opacity="0.3"/>
    </pattern>

    <pattern id="deckPlanks" width="60" height="60" patternUnits="userSpaceOnUse" patternTransform="rotate(15)">
      <line x1="0" y1="0" x2="60" y2="0" stroke="#7E5632" stroke-width="2" opacity="0.4"/>
      <line x1="0" y1="30" x2="60" y2="30" stroke="#7E5632" stroke-width="2" opacity="0.4"/>
    </pattern>

    <!-- Soft Drop Shadow Filter -->
    <filter id="softShadowF2" x="-10%" y="-10%" width="120%" height="120%">
      <feDropShadow dx="0" dy="4" stdDeviation="6" flood-color="#422538" flood-opacity="0.14"/>
    </filter>
  </defs>

  <!-- ══════════════════════════════════════════════════════════════════════════
       SECTION 1: STARGAZING NIGHT SKY (RIGHT: X = 980 to 2000)
       ══════════════════════════════════════════════════════════════════════════ -->
  <rect x="0" y="0" width="2000" height="700" fill="url(#nightSky)"/>

  <!-- Glowing Crescent Moon -->
  <g id="night-moon" filter="url(#softShadowF2)">
    <circle cx="1780" cy="95" r="46" fill="#FFFBE6" opacity="0.25"/>
    <path d="M 1780,55 A 40,40 0 1,0 1818,125 A 34,34 0 1,1 1780,55 Z" fill="url(#moonGlow)"/>
    <!-- Cute Sleepy Moon Face -->
    <path d="M 1765,88 Q 1770,92 1775,88" stroke="#A88332" stroke-width="1.8" fill="none"/>
    <circle cx="1760" cy="95" r="3" fill="#FFA5A5" opacity="0.6"/>
  </g>

  <!-- Twinkling Stars in Night Sky -->
  <g id="twinkling-stars" fill="#FFFFFF">
    <!-- 4-Point Stars -->
    <g transform="translate(1080, 80) scale(0.9)">
      <polygon points="0,-14 3,-3 14,0 3,3 0,14 -3,3 -14,0 -3,-3" fill="#FFF5C0"/>
    </g>
    <g transform="translate(1260, 50) scale(1.2)">
      <polygon points="0,-14 3,-3 14,0 3,3 0,14 -3,3 -14,0 -3,-3" fill="#FFE599"/>
    </g>
    <g transform="translate(1420, 110) scale(0.8)">
      <polygon points="0,-14 3,-3 14,0 3,3 0,14 -3,3 -14,0 -3,-3" fill="#FFFFFF"/>
    </g>
    <g transform="translate(1600, 60) scale(1.1)">
      <polygon points="0,-14 3,-3 14,0 3,3 0,14 -3,3 -14,0 -3,-3" fill="#FFF2B2"/>
    </g>
    <g transform="translate(1920, 120) scale(0.85)">
      <polygon points="0,-14 3,-3 14,0 3,3 0,14 -3,3 -14,0 -3,-3" fill="#FFFFFF"/>
    </g>
    <g transform="translate(1680, 180) scale(0.7)">
      <polygon points="0,-14 3,-3 14,0 3,3 0,14 -3,3 -14,0 -3,-3" fill="#FFF5C0"/>
    </g>

    <!-- Star Dots -->
    <circle cx="1020" cy="140" r="2" opacity="0.8"/>
    <circle cx="1150" cy="40" r="2.5" opacity="0.9"/>
    <circle cx="1190" cy="120" r="1.8" opacity="0.7"/>
    <circle cx="1340" cy="90" r="2.2" opacity="0.85"/>
    <circle cx="1490" cy="45" r="2" opacity="0.75"/>
    <circle cx="1540" cy="140" r="2.5" opacity="0.9"/>
    <circle cx="1700" cy="40" r="2" opacity="0.8"/>
    <circle cx="1860" cy="80" r="2.2" opacity="0.85"/>
    <circle cx="1960" cy="50" r="1.8" opacity="0.7"/>
    <circle cx="1900" cy="190" r="2.5" opacity="0.9"/>
  </g>

  <!-- Distant Night Clouds -->
  <g fill="#453866" opacity="0.45">
    <ellipse cx="1200" cy="220" rx="130" ry="35"/>
    <ellipse cx="1500" cy="200" rx="160" ry="40"/>
    <ellipse cx="1850" cy="230" rx="140" ry="38"/>
  </g>

  <!-- ══════════════════════════════════════════════════════════════════════════
       SECTION 2: INDOOR BEDROOM & STUDY WALL (LEFT: X = 0 to 980)
       ══════════════════════════════════════════════════════════════════════════ -->
  <!-- Main Bedroom Wall -->
  <path d="M 0,0 L 980,0 L 980,370 L 0,320 Z" fill="url(#wallF2)"/>

  <!-- Wallpaper Vertical Soft Stripes -->
  <g opacity="0.32">
    <rect x="40" y="0" width="35" height="322" fill="url(#wallF2Stripe)"/>
    <rect x="130" y="0" width="35" height="326" fill="url(#wallF2Stripe)"/>
    <rect x="220" y="0" width="35" height="331" fill="url(#wallF2Stripe)"/>
    <rect x="310" y="0" width="35" height="336" fill="url(#wallF2Stripe)"/>
    <rect x="400" y="0" width="35" height="341" fill="url(#wallF2Stripe)"/>
    <rect x="490" y="0" width="35" height="346" fill="url(#wallF2Stripe)"/>
    <rect x="580" y="0" width="35" height="350" fill="url(#wallF2Stripe)"/>
    <rect x="670" y="0" width="35" height="355" fill="url(#wallF2Stripe)"/>
    <rect x="760" y="0" width="35" height="360" fill="url(#wallF2Stripe)"/>
    <rect x="850" y="0" width="35" height="365" fill="url(#wallF2Stripe)"/>
    <rect x="940" y="0" width="35" height="368" fill="url(#wallF2Stripe)"/>
  </g>

  <!-- Crown Molding Trim -->
  <rect x="0" y="0" width="980" height="14" fill="#E8D1DF" stroke="#D1B2C6" stroke-width="1.5"/>

  <!-- ARCHED BEDROOM WINDOW (Left: X: 110 - 270) -->
  <g id="f2-window-left" filter="url(#softShadowF2)">
    <path d="M 110,195 L 110,105 A 80,80 0 0,1 270,105 L 270,195 Z" fill="#785338" stroke="#5C3B24" stroke-width="5"/>
    <path d="M 120,190 L 120,108 A 70,70 0 0,1 260,108 L 260,190 Z" fill="url(#windowSunset)"/>
    <!-- Twinkling stars inside window -->
    <circle cx="160" cy="140" r="2.5" fill="#FFEAA7"/>
    <circle cx="210" cy="120" r="3" fill="#FFF"/>
    <circle cx="230" cy="160" r="2" fill="#FFEAA7"/>
    <circle cx="145" cy="170" r="2" fill="#FFF"/>
    <!-- Window Crossbars -->
    <line x1="190" y1="40" x2="190" y2="190" stroke="#5C3B24" stroke-width="4.5"/>
    <line x1="120" y1="128" x2="260" y2="128" stroke="#5C3B24" stroke-width="3.5"/>
    <!-- Window Sill -->
    <rect x="100" y="195" width="180" height="15" rx="5" fill="#9C7352" stroke="#5C3B24" stroke-width="3"/>
    <!-- Cute Candle on Sill -->
    <rect x="220" y="180" width="14" height="16" rx="2" fill="#FFF0F5" stroke="#785338" stroke-width="1.5"/>
    <ellipse cx="227" cy="172" rx="4" ry="7" fill="#FFD166"/>
    <circle cx="227" cy="174" r="2.5" fill="#FF708F"/>
  </g>

  <!-- BUILT-IN BOOKSHELF (Center-Left: X: 360 - 520) -->
  <g id="f2-bookshelf" filter="url(#softShadowF2)">
    <rect x="360" y="65" width="160" height="145" rx="8" fill="#C9A382" stroke="#68472B" stroke-width="4"/>
    <rect x="372" y="77" width="136" height="55" fill="#E6CEB8" rx="3"/>
    <rect x="372" y="142" width="136" height="56" fill="#E6CEB8" rx="3"/>

    <!-- Top Shelf Books -->
    <rect x="382" y="87" width="16" height="42" fill="#FF8DA1" rx="2" stroke="#5C3B24" stroke-width="1.5"/>
    <rect x="400" y="82" width="18" height="47" fill="#69C261" rx="2" stroke="#5C3B24" stroke-width="1.5"/>
    <rect x="420" y="86" width="14" height="43" fill="#4D96FF" rx="2" stroke="#5C3B24" stroke-width="1.5"/>
    <rect x="436" y="80" width="20" height="49" fill="#FFD166" rx="2" stroke="#5C3B24" stroke-width="1.5"/>
    <rect x="458" y="88" width="15" height="41" fill="#C7CEEA" rx="2" stroke="#5C3B24" stroke-width="1.5"/>

    <!-- Bottom Shelf: Succulent & Trophy -->
    <path d="M 400,188 L 404,172 L 420,172 L 424,188 Z" fill="#E57373" stroke="#5C3B24" stroke-width="1.8"/>
    <circle cx="412" cy="165" r="9" fill="#81C784"/>
    <circle cx="408" cy="161" r="6" fill="#A5D6A7"/>
    <!-- Trophy / Star Figure -->
    <path d="M 470,188 L 484,188 L 482,176 L 472,176 Z" fill="#FFD166" stroke="#5C3B24" stroke-width="1.5"/>
    <circle cx="477" cy="168" r="8" fill="#FFD166" stroke="#5C3B24" stroke-width="1.5"/>
  </g>

  <!-- WALL DECOR: MOON & STARS DREAMCATCHER (Center: X: 590 - 700) -->
  <g id="dreamcatcher" filter="url(#softShadowF2)">
    <circle cx="645" cy="100" r="32" fill="none" stroke="#B08560" stroke-width="3"/>
    <!-- Inner Web Lines -->
    <line x1="645" y1="68" x2="645" y2="132" stroke="#D8B595" stroke-width="1.5"/>
    <line x1="613" y1="100" x2="677" y2="100" stroke="#D8B595" stroke-width="1.5"/>
    <line x1="622" y1="77" x2="668" y2="123" stroke="#D8B595" stroke-width="1.5"/>
    <line x1="622" y1="123" x2="668" y2="77" stroke="#D8B595" stroke-width="1.5"/>
    <circle cx="645" cy="100" r="7" fill="#FF8DA1"/>
    <!-- Hanging Feathers -->
    <path d="M 645,132 L 645,170" stroke="#B08560" stroke-width="2"/>
    <ellipse cx="645" cy="178" rx="6" ry="12" fill="#FFE5EC" stroke="#F48FB1" stroke-width="1.5"/>
    <path d="M 625,126 L 620,160" stroke="#B08560" stroke-width="1.8"/>
    <ellipse cx="620" cy="166" rx="5" ry="10" fill="#E8EAFF" stroke="#A0C4FF" stroke-width="1.5"/>
    <path d="M 665,126 L 670,160" stroke="#B08560" stroke-width="1.8"/>
    <ellipse cx="670" cy="166" rx="5" ry="10" fill="#FFF0F5" stroke="#FFAEC4" stroke-width="1.5"/>
  </g>

  <!-- WALL ART: STUDY MOTIVATION (X: 760 - 870) -->
  <g id="f2-wall-art" filter="url(#softShadowF2)">
    <rect x="760" y="80" width="105" height="120" rx="6" fill="#FFF9ED" stroke="#875E3B" stroke-width="4.5"/>
    <rect x="772" y="92" width="81" height="96" fill="#FCE4EC" rx="2"/>
    <!-- Cute text/diploma seal -->
    <circle cx="812.5" cy="130" r="22" fill="#FF8DA1"/>
    <circle cx="812.5" cy="130" r="17" fill="#FFF0F5"/>
    <text x="812.5" y="135" font-family="sans-serif" font-size="14" font-weight="bold" fill="#FF5E7E" text-anchor="middle">★ 100 ★</text>
    <path d="M 802,150 L 800,166 L 812.5,158 L 825,166 L 823,150 Z" fill="#FF5E7E"/>
    <!-- Hanging String -->
    <line x1="812.5" y1="80" x2="812.5" y2="60" stroke="#875E3B" stroke-width="2"/>
    <circle cx="812.5" cy="60" r="3" fill="#875E3B"/>
  </g>

  <!-- Fairy Lights String on F2 Wall -->
  <path d="M 20,40 Q 180,80 340,45 Q 500,85 680,45 Q 830,85 970,45" fill="none" stroke="#684D35" stroke-width="1.8" stroke-dasharray="2 3"/>
  <g fill="#FFE66D" stroke="#E59866" stroke-width="1.2">
    <circle cx="70" cy="52" r="5.5"/>
    <circle cx="150" cy="67" r="5.5"/>
    <circle cx="230" cy="65" r="5.5"/>
    <circle cx="300" cy="52" r="5.5"/>
    <circle cx="390" cy="62" r="5.5"/>
    <circle cx="470" cy="72" r="5.5"/>
    <circle cx="560" cy="70" r="5.5"/>
    <circle cx="640" cy="55" r="5.5"/>
    <circle cx="730" cy="64" r="5.5"/>
    <circle cx="810" cy="72" r="5.5"/>
    <circle cx="900" cy="62" r="5.5"/>
  </g>

  <!-- Baseboard Trim -->
  <path d="M 0,320 L 980,370 L 980,385 L 0,335 Z" fill="#BA967A" stroke="#7A5230" stroke-width="1.5"/>

  <!-- ══════════════════════════════════════════════════════════════════════════
       SECTION 3: INDOOR BEDROOM WOODEN FLOOR (LEFT: X = 0 to 980)
       ══════════════════════════════════════════════════════════════════════════ -->
  <g id="f2-indoor-floor">
    <path d="M 0,335 L 980,385 L 980,700 L 0,700 Z" fill="url(#floorF2)"/>
    <path d="M 0,335 L 980,385 L 980,700 L 0,700 Z" fill="url(#parquetF2)"/>

    <!-- Fluffy Heart-Shaped Bedroom Rug (Center) -->
    <g id="heart-rug" filter="url(#softShadowF2)">
      <path d="M 590,520 C 590,440 480,400 420,460 C 360,400 250,440 250,520 C 250,610 420,680 420,680 C 420,680 590,610 590,520 Z" fill="#FFE5EC" stroke="#F48FB1" stroke-width="5" transform="rotate(-6, 420, 550)"/>
      <path d="M 570,520 C 570,450 470,415 420,470 C 370,415 270,450 270,520 C 270,600 420,660 420,660 C 420,660 570,600 570,520 Z" fill="#FFF0F5" transform="rotate(-6, 420, 550)"/>
      <!-- Soft Pastel Hearts on Rug -->
      <g fill="#FFAEC4" opacity="0.4" transform="rotate(-6, 420, 550)">
        <circle cx="360" cy="500" r="14"/>
        <circle cx="480" cy="500" r="14"/>
        <circle cx="420" cy="570" r="16"/>
      </g>
    </g>
  </g>

  <!-- ══════════════════════════════════════════════════════════════════════════
       SECTION 4: FRENCH DOORS TO BALCONY (X: 950 to 1100)
       ══════════════════════════════════════════════════════════════════════════ -->
  <g id="french-doors">
    <path d="M 940,380 L 940,30 A 100,100 0 0,1 1060,30 L 1060,380 Z" fill="none" stroke="#68472B" stroke-width="14" stroke-linecap="round"/>
    <path d="M 950,55 L 1050,55 L 1050,380 L 950,380 Z" fill="#B3C5E8" opacity="0.3"/>

    <!-- Voile Curtains Tied Back -->
    <path d="M 942,40 Q 960,150 945,350 L 940,350 Z" fill="#FFFFFF" opacity="0.6"/>
    <path d="M 1058,40 Q 1040,150 1055,350 L 1060,350 Z" fill="#FFFFFF" opacity="0.6"/>

    <!-- Balcony Doorstep -->
    <path d="M 950,375 L 1080,375 L 1090,410 L 960,410 Z" fill="#A87A53" stroke="#68472B" stroke-width="2"/>
  </g>

  <!-- ══════════════════════════════════════════════════════════════════════════
       SECTION 5: STARGAZING ROOFTOP BALCONY DECK (RIGHT: X = 1000 to 2000)
       ══════════════════════════════════════════════════════════════════════════ -->
  <g id="rooftop-terrace">
    <!-- Timber Deck Floor Surface -->
    <path d="M 980,385 L 2000,320 L 2000,700 L 980,700 Z" fill="url(#deckWood)"/>
    <path d="M 980,385 L 2000,320 L 2000,700 L 980,700 Z" fill="url(#deckPlanks)"/>

    <!-- Classic Balcony Wrought Iron Railing (Across Terrace) -->
    <g id="balcony-railing">
      <!-- Top Handrail -->
      <line x1="1020" y1="380" x2="1980" y2="340" stroke="#FFFFFF" stroke-width="8" stroke-linecap="round"/>
      <line x1="1020" y1="380" x2="1980" y2="340" stroke="#5E432E" stroke-width="2"/>
      <!-- Bottom Rail -->
      <line x1="1020" y1="430" x2="1980" y2="390" stroke="#FFFFFF" stroke-width="7" stroke-linecap="round"/>
      <line x1="1020" y1="430" x2="1980" y2="390" stroke="#5E432E" stroke-width="2"/>

      <!-- Railing Balusters (Spindles) -->
      <g stroke="#FFFFFF" stroke-width="4.5" stroke-linecap="round">
        <line x1="1040" y1="380" x2="1040" y2="430"/>
        <line x1="1090" y1="378" x2="1090" y2="428"/>
        <line x1="1140" y1="376" x2="1140" y2="426"/>
        <line x1="1190" y1="374" x2="1190" y2="424"/>
        <line x1="1240" y1="372" x2="1240" y2="422"/>
        <line x1="1290" y1="370" x2="1290" y2="420"/>
        <line x1="1340" y1="368" x2="1340" y2="418"/>
        <line x1="1390" y1="366" x2="1390" y2="416"/>
        <line x1="1440" y1="364" x2="1440" y2="414"/>
        <line x1="1490" y1="362" x2="1490" y2="412"/>
        <line x1="1540" y1="360" x2="1540" y2="410"/>
        <line x1="1590" y1="358" x2="1590" y2="408"/>
        <line x1="1640" y1="356" x2="1640" y2="406"/>
        <line x1="1690" y1="354" x2="1690" y2="404"/>
        <line x1="1740" y1="352" x2="1740" y2="402"/>
        <line x1="1790" y1="350" x2="1790" y2="400"/>
        <line x1="1840" y1="348" x2="1840" y2="398"/>
        <line x1="1890" y1="346" x2="1890" y2="396"/>
        <line x1="1940" y1="344" x2="1940" y2="394"/>
      </g>
      <!-- Decorative Rings on Balcony -->
      <g fill="none" stroke="#FFFFFF" stroke-width="3">
        <circle cx="1065" cy="405" r="8"/>
        <circle cx="1165" cy="401" r="8"/>
        <circle cx="1265" cy="396" r="8"/>
        <circle cx="1365" cy="392" r="8"/>
        <circle cx="1465" cy="388" r="8"/>
        <circle cx="1565" cy="384" r="8"/>
        <circle cx="1665" cy="380" r="8"/>
        <circle cx="1765" cy="376" r="8"/>
        <circle cx="1865" cy="372" r="8"/>
      </g>
    </g>

    <!-- Warm Glowing Lanterns on Balcony Railing -->
    <g id="balcony-lanterns" filter="url(#softShadowF2)">
      <!-- Lantern 1 -->
      <g transform="translate(1120, 340)">
        <line x1="15" y1="0" x2="15" y2="18" stroke="#875E3B" stroke-width="2"/>
        <rect x="5" y="18" width="20" height="28" rx="4" fill="#FFEAA7" stroke="#68472B" stroke-width="2"/>
        <circle cx="15" cy="32" r="5" fill="#FFA502"/>
      </g>
      <!-- Lantern 2 -->
      <g transform="translate(1420, 330)">
        <line x1="15" y1="0" x2="15" y2="18" stroke="#875E3B" stroke-width="2"/>
        <rect x="5" y="18" width="20" height="28" rx="4" fill="#FFEAA7" stroke="#68472B" stroke-width="2"/>
        <circle cx="15" cy="32" r="5" fill="#FFA502"/>
      </g>
      <!-- Lantern 3 -->
      <g transform="translate(1720, 318)">
        <line x1="15" y1="0" x2="15" y2="18" stroke="#875E3B" stroke-width="2"/>
        <rect x="5" y="18" width="20" height="28" rx="4" fill="#FFEAA7" stroke="#68472B" stroke-width="2"/>
        <circle cx="15" cy="32" r="5" fill="#FFA502"/>
      </g>
    </g>

    <!-- Stargazing Telescope in Corner (X: 1840 - 1920) -->
    <g id="stargazer-telescope" filter="url(#softShadowF2)">
      <!-- Tripod Stand -->
      <line x1="1870" y1="450" x2="1840" y2="540" stroke="#785338" stroke-width="4.5" stroke-linecap="round"/>
      <line x1="1870" y1="450" x2="1870" y2="550" stroke="#5C3B24" stroke-width="4.5" stroke-linecap="round"/>
      <line x1="1870" y1="450" x2="1900" y2="540" stroke="#785338" stroke-width="4.5" stroke-linecap="round"/>
      <!-- Telescope Tube Angled up at Stars -->
      <g transform="translate(1870, 450) rotate(-35)">
        <rect x="-35" y="-12" width="70" height="24" rx="4" fill="#E8EAFF" stroke="#4B3A75" stroke-width="3"/>
        <rect x="35" y="-15" width="14" height="30" rx="3" fill="#FFD166" stroke="#4B3A75" stroke-width="2"/>
        <rect x="-45" y="-7" width="12" height="14" rx="2" fill="#FF8DA1" stroke="#4B3A75" stroke-width="2"/>
      </g>
    </g>

    <!-- Potted Terrace Lavender & Daisy Plants -->
    <g id="terrace-planters" filter="url(#softShadowF2)">
      <!-- Large Flower Planter Box (Center Terrace: X: 1250 - 1380) -->
      <rect x="1260" y="470" width="110" height="35" rx="5" fill="#9C7352" stroke="#5C3B24" stroke-width="2.5"/>
      <g fill="#A8E6CF">
        <circle cx="1275" cy="460" r="12"/>
        <circle cx="1295" cy="455" r="14"/>
        <circle cx="1315" cy="450" r="15"/>
        <circle cx="1335" cy="455" r="14"/>
        <circle cx="1355" cy="460" r="12"/>
      </g>
      <!-- Purple Lavender Sprigs -->
      <circle cx="1275" cy="452" r="5" fill="#BDB2FF"/>
      <circle cx="1295" cy="445" r="5.5" fill="#9B5DE5"/>
      <circle cx="1315" cy="440" r="6" fill="#BDB2FF"/>
      <circle cx="1335" cy="445" r="5.5" fill="#9B5DE5"/>
      <circle cx="1355" cy="452" r="5" fill="#BDB2FF"/>

      <!-- Corner Potted Palm / Ficus (X: 1040) -->
      <path d="M 1030,520 L 1035,485 L 1060,485 L 1065,520 Z" fill="#F4A261" stroke="#5C3B24" stroke-width="2"/>
      <ellipse cx="1047" cy="465" rx="14" ry="22" fill="#528F3D"/>
      <ellipse cx="1035" cy="472" rx="18" ry="12" fill="#69C261" transform="rotate(-25, 1035, 472)"/>
      <ellipse cx="1060" cy="472" rx="18" ry="12" fill="#69C261" transform="rotate(25, 1060, 472)"/>
    </g>
  </g>

  <!-- ══════════════════════════════════════════════════════════════════════════
       SECTION 6: CENTRAL DIVIDING PILLAR
       ══════════════════════════════════════════════════════════════════════════ -->
  <line x1="980" y1="0" x2="980" y2="370" stroke="#BA967A" stroke-width="6" opacity="0.6"/>
</svg>
